{
  "source": "C:\\Users\\Peter\\Desktop\\stuff\\MIUN\\quantitative_research\\video_compression\\videos\\BVI-HD\\TreeTrunk_1920x1080_50fps.mp4",
  "output": "C:\\Users\\Peter\\Desktop\\stuff\\MIUN\\quantitative_research\\video_compression\\compressed_videos\\BVI-HD\\h264\\12\\TreeTrunk_1920x1080_50fps_h264.mp4",
  "codec": "h264",
  "ok": "Input #0, mov,mp4,m4a,3gp,3g2,mj2, from 'C:\\Users\\Peter\\Desktop\\stuff\\MIUN\\quantitative_research\\video_compression\\videos\\BVI-HD\\TreeTrunk_1920x1080_50fps.mp4':\n  Metadata:\n    major_brand     : isom\n    minor_version   : 512\n    compatible_brands: isomiso2avc1mp41\n    encoder         : Lavf54.28.101\n  Duration: 00:00:05.00, start: 0.000000, bitrate: 622415 kb/s\n  Stream #0:0[0x1](und): Video: h264 (High 4:4:4 Predictive) (avc1 / 0x31637661), yuv420p(progressive), 1920x1080, 622410 kb/s, 50 fps, 50 tbr, 50 tbn (default)\n    Metadata:\n      handler_name    : VideoHandler\n      vendor_id       : [0][0][0][0]\n[out#0/mp4 @ 0000016eaaaa7280] Codec AVOption b:a (set bitrate (in bits/s)) has not been used for any stream. The most likely reason is either wrong type (e.g. a video option with no video streams) or that it is a private option of some decoder which was not actually used for any stream.\nStream mapping:\n  Stream #0:0 -> #0:0 (h264 (native) -> h264 (libx264))\nPress [q] to stop, [?] for help\n[libx264 @ 0000016eab670700] using cpu capabilities: MMX2 SSE2Fast SSSE3 SSE4.2 AVX FMA3 BMI2 AVX2\n[libx264 @ 0000016eab670700] profile High, level 5.0, 4:2:0, 8-bit\n[libx264 @ 0000016eab670700] 264 - core 165 r3222 b35605a - H.264/MPEG-4 AVC codec - Copyleft 2003-2025 - http://www.videolan.org/x264.html - options: cabac=1 ref=5 deblock=1:0:0 analyse=0x3:0x113 me=hex subme=8 psy=1 psy_rd=1.00:0.00 mixed_ref=1 me_range=16 chroma_me=1 trellis=2 8x8dct=1 cqm=0 deadzone=21,11 fast_pskip=1 chroma_qp_offset=-2 threads=18 lookahead_threads=3 sliced_threads=0 nr=0 decimate=1 interlaced=0 bluray_compat=0 constrained_intra=0 bframes=3 b_pyramid=2 b_adapt=1 b_bias=0 direct=3 weightb=1 open_gop=0 weightp=2 keyint=250 keyint_min=25 scenecut=40 intra_refresh=0 rc_lookahead=50 rc=cbr mbtree=1 bitrate=12000 ratetol=1.0 qcomp=0.60 qpmin=0 qpmax=69 qpstep=4 vbv_maxrate=12000 vbv_bufsize=12000 nal_hrd=none filler=0 ip_ratio=1.40 aq=1:1.00\nOutput #0, mp4, to 'C:\\Users\\Peter\\Desktop\\stuff\\MIUN\\quantitative_research\\video_compression\\compressed_videos\\BVI-HD\\h264\\12\\TreeTrunk_1920x1080_50fps_h264.mp4':\n  Metadata:\n    major_brand     : isom\n    minor_version   : 512\n    compatible_brands: isomiso2avc1mp41\n    encoder         : Lavf62.3.100\n  Stream #0:0(und): Video: h264 (avc1 / 0x31637661), yuv420p(tv, progressive), 1920x1080, q=2-31, 12000 kb/s, 50 fps, 12800 tbn (default)\n    Metadata:\n      encoder         : Lavc62.11.100 libx264\n      handler_name    : VideoHandler\n      vendor_id       : [0][0][0][0]\n    Side data:\n      cpb: bitrate max/min/avg: 12000000/0/12000000 buffer size: 12000000 vbv_delay: N/A\nframe=    0 fps=0.0 q=0.0 size=       0KiB time=N/A bitrate=N/A speed=N/A elapsed=0:00:00.52    \nframe=    0 fps=0.0 q=0.0 size=       0KiB time=N/A bitrate=N/A speed=N/A elapsed=0:00:01.10    \nframe=    0 fps=0.0 q=0.0 size=       0KiB time=N/A bitrate=N/A speed=N/A elapsed=0:00:01.63    \nframe=   13 fps=6.1 q=28.0 size=     512KiB time=00:00:00.08 bitrate=52433.6kbits/s speed=0.0374x elapsed=0:00:02.13    \nframe=   29 fps= 10 q=28.0 size=     512KiB time=00:00:00.54 bitrate=7767.9kbits/s speed=0.194x elapsed=0:00:02.78    \nframe=   49 fps= 15 q=29.0 size=    1024KiB time=00:00:00.94 bitrate=8924.5kbits/s speed=0.282x elapsed=0:00:03.33    \nframe=   61 fps= 16 q=36.0 size=    1280KiB time=00:00:01.18 bitrate=8886.6kbits/s speed=0.304x elapsed=0:00:03.88    \nframe=   77 fps= 17 q=38.0 size=    1792KiB time=00:00:01.42 bitrate=10338.3kbits/s speed=0.322x elapsed=0:00:04.40    \nframe=  101 fps= 20 q=30.0 size=    2048KiB time=00:00:01.90 bitrate=8830.3kbits/s speed=0.382x elapsed=0:00:04.97    \nframe=  115 fps= 21 q=32.0 size=    2560KiB time=00:00:02.22 bitrate=9446.8kbits/s speed=0.401x elapsed=0:00:05.53    \nframe=  133 fps= 22 q=33.0 size=    2816KiB time=00:00:02.58 bitrate=8941.5kbits/s speed=0.424x elapsed=0:00:06.09    \nframe=  141 fps= 21 q=35.0 size=    3072KiB time=00:00:02.78 bitrate=9052.6kbits/s speed=0.419x elapsed=0:00:06.63    \nframe=  157 fps= 22 q=39.0 size=    3584KiB time=00:00:03.10 bitrate=9471.1kbits/s speed=0.433x elapsed=0:00:07.16    \nframe=  166 fps= 22 q=39.0 size=    3840KiB time=00:00:03.28 bitrate=9590.8kbits/s speed=0.427x elapsed=0:00:07.68    \nframe=  181 fps= 22 q=41.0 size=    4352KiB time=00:00:03.58 bitrate=9958.7kbits/s speed=0.436x elapsed=0:00:08.20    \nframe=  197 fps= 23 q=40.0 size=    4864KiB time=00:00:03.90 bitrate=10217.0kbits/s speed=0.446x elapsed=0:00:08.73    \nframe=  209 fps= 23 q=39.0 size=    5376KiB time=00:00:04.10 bitrate=10741.6kbits/s speed=0.442x elapsed=0:00:09.27    \nframe=  221 fps= 23 q=39.0 size=    5632KiB time=00:00:04.38 bitrate=10533.7kbits/s speed=0.447x elapsed=0:00:09.80    \nframe=  229 fps= 22 q=39.0 size=    6144KiB time=00:00:04.54 bitrate=11086.4kbits/s speed=0.44x elapsed=0:00:10.32    \nframe=  239 fps= 22 q=-1.0 size=    6400KiB time=00:00:04.74 bitrate=11061.0kbits/s speed=0.438x elapsed=0:00:10.82    \n[mp4 @ 0000016eaaaa73c0] Starting second pass: moving the moov atom to the beginning of the file\n[out#0/mp4 @ 0000016eaaaa7280] video:6778KiB audio:0KiB subtitle:0KiB other streams:0KiB global headers:0KiB muxing overhead: 0.056923%\nframe=  250 fps= 23 q=-1.0 Lsize=    6782KiB time=00:00:04.96 bitrate=11201.4kbits/s speed=0.449x elapsed=0:00:11.05    \n[libx264 @ 0000016eab670700] frame I:1     Avg QP:25.55  size:428998\n[libx264 @ 0000016eab670700] frame P:63    Avg QP:33.40  size: 97282\n[libx264 @ 0000016eab670700] frame B:186   Avg QP:36.66  size:  2056\n[libx264 @ 0000016eab670700] consecutive B-frames:  0.4%  0.8%  1.2% 97.6%\n[libx264 @ 0000016eab670700] mb I  I16..4:  2.0% 87.7% 10.2%\n[libx264 @ 0000016eab670700] mb P  I16..4:  0.0% 23.3%  1.1%  P16..4: 38.5% 13.8%  7.4%  0.0%  0.0%    skip:15.9%\n[libx264 @ 0000016eab670700] mb B  I16..4:  0.0%  0.0%  0.0%  B16..8: 26.1%  0.8%  0.2%  direct: 0.2%  skip:72.7%  L0:53.2% L1:46.3% BI: 0.5%\n[libx264 @ 0000016eab670700] 8x8 transform intra:94.9% inter:76.3%\n[libx264 @ 0000016eab670700] direct mvs  spatial:94.6% temporal:5.4%\n[libx264 @ 0000016eab670700] coded y,uvDC,uvAC intra: 98.0% 44.2% 13.5% inter: 10.0% 4.2% 0.0%\n[libx264 @ 0000016eab670700] i16 v,h,dc,p: 14% 24%  5% 56%\n[libx264 @ 0000016eab670700] i8 v,h,dc,ddl,ddr,vr,hd,vl,hu:  6%  5%  3% 11% 21% 16% 17% 10% 12%\n[libx264 @ 0000016eab670700] i4 v,h,dc,ddl,ddr,vr,hd,vl,hu:  9%  3%  1%  9% 19% 16% 17% 11% 13%\n[libx264 @ 0000016eab670700] i8c dc,h,v,p: 60% 21% 10%  9%\n[libx264 @ 0000016eab670700] Weighted P-Frames: Y:0.0% UV:0.0%\n[libx264 @ 0000016eab670700] ref P L0: 62.7% 17.0%  9.7%  4.9%  5.7%\n[libx264 @ 0000016eab670700] ref B L0: 85.2% 14.1%  0.6%  0.1%\n[libx264 @ 0000016eab670700] ref B L1: 97.3%  2.7%\n[libx264 @ 0000016eab670700] kb/s:11104.25\n",
  "seconds": 11.497888803482056,
  "probe_out": {}
}